<?xml version="1.0" encoding="UTF-8"?>
<svg version="1.1" xmlns="http://www.w3.org/2000/svg" width="53" height="53">
<path d="M0 0 C10.63165814 8.4345471 10.63165814 8.4345471 11.5 12.125 C10.69081162 16.77783319 7.59074736 19.12608682 4 22 C-3.92501592 27.22392918 -11.43291906 30.08974147 -21 29 C-29.91569504 26.9372072 -35.68593503 21.31406497 -42 15 C-42.5 12.875 -42.5 12.875 -42 10 C-31.82135803 -3.14986405 -14.80848184 -8.6706057 0 0 Z M-37 13 C-30.36259702 19.33638697 -25.07530266 24.00569465 -15.5625 24.4375 C-6.19779406 24.13046046 -0.58503385 19.23476609 6 13 C1.01927252 6.31533943 -4.33786717 1.99349834 -12.73828125 0.51953125 C-23.42211427 -0.03959438 -30.78358096 4.65691129 -37 13 Z " fill="#FFFFFF" transform="translate(42,14)"/>
<path d="M0 0 C3.0625 1.9375 3.0625 1.9375 5 5 C6.03945854 9.75058323 5.669717 12.94141507 3.0625 17.0625 C-1.05858493 19.669717 -4.24941677 20.03945854 -9 19 C-12.0625 17.0625 -12.0625 17.0625 -14 14 C-15.03945854 9.24941677 -14.669717 6.05858493 -12.0625 1.9375 C-7.94141507 -0.669717 -4.75058323 -1.03945854 0 0 Z M-8.25 5.6875 C-10.27558577 7.86576328 -10.27558577 7.86576328 -9.9375 10.625 C-9.13344454 13.32289761 -9.13344454 13.32289761 -6 15 C-3.41666667 14.91666667 -3.41666667 14.91666667 -1 14 C1.28138945 11.24301816 1.28138945 11.24301816 0.8125 8.4375 C0.16627558 5.66744883 0.16627558 5.66744883 -3 4 C-6.06875 3.7 -6.06875 3.7 -8.25 5.6875 Z " fill="#FFFFFF" transform="translate(31,17)"/>
</svg>
