<?xml version="1.0" encoding="UTF-8"?>
<svg version="1.1" xmlns="http://www.w3.org/2000/svg" width="60" height="53">
<path d="M0 0 C2.984375 2.7578125 2.984375 2.7578125 3.125 4.9375 C1.27609931 8.32715126 -1.57170935 9.3159274 -5 11 C-5.66 11 -6.32 11 -7 11 C-6.566875 11.44730469 -6.13375 11.89460938 -5.6875 12.35546875 C-1.2789949 17.14155414 -1.2789949 17.14155414 -0.1875 20.5 C-2.33909243 27.1202844 -8.98137348 30.97973491 -14.8828125 34 C-21.40818063 37.08209269 -28.21214661 38.49210499 -35.28125 36.2890625 C-35.9721875 36.00804687 -36.663125 35.72703125 -37.375 35.4375 C-41.30327905 33.86246607 -41.30327905 33.86246607 -45 35 C-46.18790658 35.67210504 -47.35564049 36.38116632 -48.5 37.125 C-52 39 -52 39 -54.4375 38.75 C-54.953125 38.5025 -55.46875 38.255 -56 38 C-56.33 36.68 -56.66 35.36 -57 34 C-54.36 32.35 -51.72 30.7 -49 29 C-49.825 28.113125 -50.65 27.22625 -51.5 26.3125 C-53.13006116 24.30771214 -53.98092839 23.06198272 -54.75 20.5625 C-52.96160805 14.45216083 -46.31716253 9.97761102 -41 7 C-34.26659119 3.98426478 -26.68574345 2.21746196 -19.56640625 4.92578125 C-18.35791016 5.42658203 -18.35791016 5.42658203 -17.125 5.9375 C-13.50835461 7.20447769 -12.32245768 7.13295648 -8.703125 5.640625 C-5.6979871 3.87704642 -2.82701893 2.03525933 0 0 Z M-46.625 17.8125 C-47.40875 18.864375 -48.1925 19.91625 -49 21 C-47.35 22.65 -45.7 24.3 -44 26 C-40.45481116 24.60240095 -40.45481116 24.60240095 -37 23 C-36.87625 21.906875 -36.7525 20.81375 -36.625 19.6875 C-36 16 -36 16 -34.5 13.5625 C-30.74012918 11.21258074 -27.31003144 11.72682899 -23 12 C-21.68 12 -20.36 12 -19 12 C-19 11.34 -19 10.68 -19 10 C-29.37790159 6.54069947 -39.52783205 9.63496691 -46.625 17.8125 Z M-32 17 C-32 17.66 -32 18.32 -32 19 C-28.27385847 17.88145414 -28.27385847 17.88145414 -26 15 C-29.18490007 14.7226499 -29.18490007 14.7226499 -32 17 Z M-16.125 16.0625 C-18.78656847 18.81278742 -18.66655436 21.2654088 -19 25 C-19.33 25.99 -19.66 26.98 -20 28 C-22.81227622 28.93742541 -24.58746844 29.13470844 -27.5 29.125 C-28.2734375 29.12757812 -29.046875 29.13015625 -29.84375 29.1328125 C-32 29 -32 29 -35 28 C-35.66 28.66 -36.32 29.32 -37 30 C-32.17641541 32.81751436 -27.43964583 32.59768014 -22 32 C-15.5510307 30.10056812 -10.78903537 25.53429945 -6 21 C-6.763125 20.01 -7.52625 19.02 -8.3125 18 C-8.74175781 17.443125 -9.17101562 16.88625 -9.61328125 16.3125 C-11.85489371 14.19086117 -13.52966002 14.76483001 -16.125 16.0625 Z M-29 24 C-29 24.66 -29 25.32 -29 26 C-26.55519921 25.81171228 -26.55519921 25.81171228 -24 25 C-22.63979849 23.03241727 -22.63979849 23.03241727 -22 21 C-24.94271444 21 -26.61500243 22.36815955 -29 24 Z " fill="#D0D3D6" transform="translate(57,6)"/>
<path d="M0 0 C3.3721049 1.44518781 5.69880363 3.12350453 8 6 C8.6875 8.3125 8.6875 8.3125 8 11 C2.83410606 17.97876976 -5.56743188 23.1069745 -14 25 C-20.76289472 25.64081574 -25.81010248 24.75106556 -32 22 C-32 21.01 -32 20.02 -32 19 C-28.71303767 18.20046862 -27.28976808 17.90341064 -24 19 C-15.50185111 19.83745894 -9.67102959 18.65481323 -2.953125 13.3984375 C-1.26573265 11.97427836 0.37232056 10.49203949 2 9 C-0.475 5.535 -0.475 5.535 -3 2 C-2.01 1.34 -1.02 0.68 0 0 Z " fill="#FEFEFE" transform="translate(48,18)"/>
<path d="M0 0 C0 0.99 0 1.98 0 3 C-3.28696233 3.79953138 -4.71023192 4.09658936 -8 3 C-16.07440825 2.05955312 -22.29334947 3.33188174 -29 8 C-30.98391891 9.90795805 -32.41532534 11.72863299 -34 14 C-32.35 15.98 -30.7 17.96 -29 20 C-30.65 20.66 -32.3 21.32 -34 22 C-39.62343096 17.12970711 -39.62343096 17.12970711 -40.8125 13.5625 C-38.8772553 7.45903596 -32.36868442 3.00646328 -27 0 C-17.62555099 -4.19859492 -9.3335152 -4.14822898 0 0 Z " fill="#FEFEFE" transform="translate(43,13)"/>
<path d="M0 0 C0.66 0 1.32 0 2 0 C2.41271158 4.20965814 2.42484735 6.35587659 0.0625 9.9375 C-3.57996901 12.39059137 -5.73037383 12.5263143 -10.01171875 12.46875 C-12 12 -12 12 -14 9 C-11.41242455 7.89103909 -9.25445694 7.02482507 -6.4375 6.75 C-2.82929964 5.63978451 -1.92242035 3.11564677 0 0 Z " fill="#FEFEFE" transform="translate(37,24)"/>
<path d="M0 0 C1.98828125 0.46875 1.98828125 0.46875 3.98828125 3.46875 C1.38058678 4.58633334 -0.87779127 5.45006244 -3.69921875 5.84375 C-4.46234375 6.05 -5.22546875 6.25625 -6.01171875 6.46875 C-7.1033815 8.40205603 -7.1033815 8.40205603 -8.01171875 10.46875 C-10.13671875 11.71875 -10.13671875 11.71875 -12.01171875 12.46875 C-12.42443033 8.25909186 -12.4365661 6.11287341 -10.07421875 2.53125 C-6.43174974 0.07815863 -4.28134492 -0.0575643 0 0 Z " fill="#FEFEFE" transform="translate(32.01171875,16.53125)"/>
</svg>
